<mxfile host="app.diagrams.net" modified="2021-09-19T10:08:45.589Z" agent="5.0 (Macintosh; Intel Mac OS X 10_15_7) AppleWebKit/537.36 (KHTML, like Gecko) Chrome/93.0.4577.82 Safari/537.36" etag="ZxjrSZhpaKRq6tchLBao" version="15.2.9" type="github" pages="2">
  <diagram id="__Oh6_LlSl8RRpJVlAcT" name="Page-1">
    <mxGraphModel dx="1426" dy="691" grid="1" gridSize="10" guides="1" tooltips="1" connect="1" arrows="1" fold="1" page="1" pageScale="1" pageWidth="827" pageHeight="1169" math="0" shadow="0">
      <root>
        <mxCell id="0" />
        <mxCell id="1" parent="0" />
      </root>
    </mxGraphModel>
  </diagram>
  <diagram id="fTc9bhvR0LoFMJ6Bn_uw" name="Page-2">
    <mxGraphModel dx="1678" dy="813" grid="0" gridSize="10" guides="1" tooltips="1" connect="1" arrows="1" fold="1" page="1" pageScale="1" pageWidth="1169" pageHeight="827" math="0" shadow="0">
      <root>
        <mxCell id="YKPgOPrzMkJwlognBXx7-0" />
        <mxCell id="YKPgOPrzMkJwlognBXx7-1" parent="YKPgOPrzMkJwlognBXx7-0" />
        <mxCell id="cjYl7e59V2CTC6rH1wNU-24" value="Availability zone" style="sketch=0;outlineConnect=0;gradientColor=none;html=1;whiteSpace=wrap;fontSize=12;fontStyle=0;shape=mxgraph.aws4.group;grIcon=mxgraph.aws4.group_availability_zone;strokeColor=#545B64;fillColor=none;verticalAlign=top;align=left;spacingLeft=30;fontColor=#545B64;dashed=1;" vertex="1" parent="YKPgOPrzMkJwlognBXx7-1">
          <mxGeometry x="677" y="278.75" width="423" height="246.5" as="geometry" />
        </mxCell>
        <mxCell id="YKPgOPrzMkJwlognBXx7-3" value="AWS Cloud" style="points=[[0,0],[0.25,0],[0.5,0],[0.75,0],[1,0],[1,0.25],[1,0.5],[1,0.75],[1,1],[0.75,1],[0.5,1],[0.25,1],[0,1],[0,0.75],[0,0.5],[0,0.25]];outlineConnect=0;gradientColor=none;html=1;whiteSpace=wrap;fontSize=12;fontStyle=0;shape=mxgraph.aws4.group;grIcon=mxgraph.aws4.group_aws_cloud;strokeColor=#232F3E;fillColor=none;verticalAlign=top;align=left;spacingLeft=30;fontColor=#232F3E;dashed=0;" parent="YKPgOPrzMkJwlognBXx7-1" vertex="1">
          <mxGeometry x="158" y="70" width="978" height="639" as="geometry" />
        </mxCell>
        <mxCell id="159kFaiQRVPu56qupL2q-0" value="VPC" style="points=[[0,0],[0.25,0],[0.5,0],[0.75,0],[1,0],[1,0.25],[1,0.5],[1,0.75],[1,1],[0.75,1],[0.5,1],[0.25,1],[0,1],[0,0.75],[0,0.5],[0,0.25]];outlineConnect=0;gradientColor=none;html=1;whiteSpace=wrap;fontSize=12;fontStyle=0;shape=mxgraph.aws4.group;grIcon=mxgraph.aws4.group_vpc;strokeColor=#248814;fillColor=none;verticalAlign=top;align=left;spacingLeft=30;fontColor=#AAB7B8;dashed=1;" vertex="1" parent="YKPgOPrzMkJwlognBXx7-1">
          <mxGeometry x="196" y="98" width="925" height="597" as="geometry" />
        </mxCell>
        <mxCell id="YKPgOPrzMkJwlognBXx7-14" value="" style="sketch=0;outlineConnect=0;fontColor=#232F3E;gradientColor=none;fillColor=#FF9900;strokeColor=none;dashed=0;verticalLabelPosition=bottom;verticalAlign=top;align=center;html=1;fontSize=12;fontStyle=0;aspect=fixed;pointerEvents=1;shape=mxgraph.aws4.auto_scaling2;" parent="YKPgOPrzMkJwlognBXx7-1" vertex="1">
          <mxGeometry x="729" y="407.5" width="30" height="30" as="geometry" />
        </mxCell>
        <mxCell id="YKPgOPrzMkJwlognBXx7-15" value="Availability zone" style="sketch=0;outlineConnect=0;gradientColor=none;html=1;whiteSpace=wrap;fontSize=12;fontStyle=0;shape=mxgraph.aws4.group;grIcon=mxgraph.aws4.group_availability_zone;strokeColor=#545B64;fillColor=none;verticalAlign=top;align=left;spacingLeft=30;fontColor=#545B64;dashed=1;" parent="YKPgOPrzMkJwlognBXx7-1" vertex="1">
          <mxGeometry x="320" y="132.5" width="238" height="246.5" as="geometry" />
        </mxCell>
        <mxCell id="YKPgOPrzMkJwlognBXx7-33" value="" style="edgeStyle=orthogonalEdgeStyle;rounded=0;orthogonalLoop=1;jettySize=auto;html=1;startArrow=blockThin;startFill=1;endArrow=blockThin;endFill=1;strokeWidth=2;" parent="YKPgOPrzMkJwlognBXx7-1" source="YKPgOPrzMkJwlognBXx7-32" target="cjYl7e59V2CTC6rH1wNU-1" edge="1">
          <mxGeometry relative="1" as="geometry">
            <mxPoint x="210" y="295" as="targetPoint" />
          </mxGeometry>
        </mxCell>
        <mxCell id="YKPgOPrzMkJwlognBXx7-32" value="" style="shape=image;html=1;verticalAlign=top;verticalLabelPosition=bottom;labelBackgroundColor=#ffffff;imageAspect=0;aspect=fixed;image=https://cdn2.iconfinder.com/data/icons/Radium_Neue_PNGs/128/User_Computer.png;strokeColor=#FF66B3;fillColor=#4A433B;" parent="YKPgOPrzMkJwlognBXx7-1" vertex="1">
          <mxGeometry x="19" y="362" width="69" height="69" as="geometry" />
        </mxCell>
        <mxCell id="YKPgOPrzMkJwlognBXx7-7" value="Private subnet" style="points=[[0,0],[0.25,0],[0.5,0],[0.75,0],[1,0],[1,0.25],[1,0.5],[1,0.75],[1,1],[0.75,1],[0.5,1],[0.25,1],[0,1],[0,0.75],[0,0.5],[0,0.25]];outlineConnect=0;gradientColor=none;html=1;whiteSpace=wrap;fontSize=12;fontStyle=0;shape=mxgraph.aws4.group;grIcon=mxgraph.aws4.group_security_group;grStroke=0;strokeColor=#147EBA;fillColor=#E6F2F8;verticalAlign=top;align=left;spacingLeft=30;fontColor=#147EBA;dashed=0;" parent="YKPgOPrzMkJwlognBXx7-1" vertex="1">
          <mxGeometry x="697" y="312.25" width="362" height="176.5" as="geometry" />
        </mxCell>
        <mxCell id="YKPgOPrzMkJwlognBXx7-12" value="" style="edgeStyle=none;rounded=0;orthogonalLoop=1;jettySize=auto;html=1;endArrow=blockThin;endFill=1;startArrow=blockThin;startFill=1;strokeWidth=2;entryX=1;entryY=0.5;entryDx=0;entryDy=0;entryPerimeter=0;" parent="YKPgOPrzMkJwlognBXx7-1" source="YKPgOPrzMkJwlognBXx7-10" target="cjYl7e59V2CTC6rH1wNU-22" edge="1">
          <mxGeometry relative="1" as="geometry">
            <mxPoint x="798" y="376.5" as="targetPoint" />
          </mxGeometry>
        </mxCell>
        <mxCell id="YKPgOPrzMkJwlognBXx7-28" value="" style="sketch=0;points=[[0,0,0],[0.25,0,0],[0.5,0,0],[0.75,0,0],[1,0,0],[0,1,0],[0.25,1,0],[0.5,1,0],[0.75,1,0],[1,1,0],[0,0.25,0],[0,0.5,0],[0,0.75,0],[1,0.25,0],[1,0.5,0],[1,0.75,0]];points=[[0,0,0],[0.25,0,0],[0.5,0,0],[0.75,0,0],[1,0,0],[0,1,0],[0.25,1,0],[0.5,1,0],[0.75,1,0],[1,1,0],[0,0.25,0],[0,0.5,0],[0,0.75,0],[1,0.25,0],[1,0.5,0],[1,0.75,0]];outlineConnect=0;fontColor=#232F3E;gradientColor=#F34482;gradientDirection=north;fillColor=#BC1356;strokeColor=#ffffff;dashed=0;verticalLabelPosition=bottom;verticalAlign=top;align=center;html=1;fontSize=12;fontStyle=0;aspect=fixed;shape=mxgraph.aws4.resourceIcon;resIcon=mxgraph.aws4.cloudwatch_2;" parent="YKPgOPrzMkJwlognBXx7-1" vertex="1">
          <mxGeometry x="717" y="447.5" width="31" height="31" as="geometry" />
        </mxCell>
        <mxCell id="YKPgOPrzMkJwlognBXx7-8" value="Public subnet" style="points=[[0,0],[0.25,0],[0.5,0],[0.75,0],[1,0],[1,0.25],[1,0.5],[1,0.75],[1,1],[0.75,1],[0.5,1],[0.25,1],[0,1],[0,0.75],[0,0.5],[0,0.25]];outlineConnect=0;gradientColor=none;html=1;whiteSpace=wrap;fontSize=12;fontStyle=0;shape=mxgraph.aws4.group;grIcon=mxgraph.aws4.group_security_group;grStroke=0;strokeColor=#248814;fillColor=#E9F3E6;verticalAlign=top;align=left;spacingLeft=30;fontColor=#248814;dashed=0;" parent="YKPgOPrzMkJwlognBXx7-1" vertex="1">
          <mxGeometry x="346" y="172" width="188" height="171" as="geometry" />
        </mxCell>
        <mxCell id="cjYl7e59V2CTC6rH1wNU-1" value="" style="sketch=0;outlineConnect=0;fontColor=#232F3E;gradientColor=none;fillColor=#A166FF;strokeColor=none;dashed=0;verticalLabelPosition=bottom;verticalAlign=top;align=center;html=1;fontSize=12;fontStyle=0;aspect=fixed;pointerEvents=1;shape=mxgraph.aws4.internet_gateway;" vertex="1" parent="YKPgOPrzMkJwlognBXx7-1">
          <mxGeometry x="179" y="377.5" width="38" height="38" as="geometry" />
        </mxCell>
        <mxCell id="cjYl7e59V2CTC6rH1wNU-2" value="" style="sketch=0;outlineConnect=0;fontColor=#232F3E;gradientColor=none;fillColor=#FF9900;strokeColor=none;dashed=0;verticalLabelPosition=bottom;verticalAlign=top;align=center;html=1;fontSize=12;fontStyle=0;aspect=fixed;pointerEvents=1;shape=mxgraph.aws4.auto_scaling2;" vertex="1" parent="YKPgOPrzMkJwlognBXx7-1">
          <mxGeometry x="420" y="385.13" width="33.75" height="33.75" as="geometry" />
        </mxCell>
        <mxCell id="cjYl7e59V2CTC6rH1wNU-3" value="Availability zone" style="sketch=0;outlineConnect=0;gradientColor=none;html=1;whiteSpace=wrap;fontSize=12;fontStyle=0;shape=mxgraph.aws4.group;grIcon=mxgraph.aws4.group_availability_zone;strokeColor=#FF66B3;fillColor=none;verticalAlign=top;align=left;spacingLeft=30;fontColor=#545B64;dashed=1;" vertex="1" parent="YKPgOPrzMkJwlognBXx7-1">
          <mxGeometry x="320" y="426" width="238" height="246.5" as="geometry" />
        </mxCell>
        <mxCell id="159kFaiQRVPu56qupL2q-4" value="" style="edgeStyle=none;rounded=0;orthogonalLoop=1;jettySize=auto;html=1;startArrow=blockThin;startFill=1;endArrow=blockThin;endFill=1;strokeWidth=2;" edge="1" parent="YKPgOPrzMkJwlognBXx7-1" source="cjYl7e59V2CTC6rH1wNU-5" target="cjYl7e59V2CTC6rH1wNU-1">
          <mxGeometry relative="1" as="geometry" />
        </mxCell>
        <mxCell id="159kFaiQRVPu56qupL2q-5" value="" style="edgeStyle=orthogonalEdgeStyle;rounded=0;orthogonalLoop=1;jettySize=auto;html=1;startArrow=blockThin;startFill=1;endArrow=blockThin;endFill=1;strokeWidth=2;entryX=0;entryY=0.5;entryDx=0;entryDy=0;entryPerimeter=0;" edge="1" parent="YKPgOPrzMkJwlognBXx7-1" source="cjYl7e59V2CTC6rH1wNU-5" target="cjYl7e59V2CTC6rH1wNU-19">
          <mxGeometry relative="1" as="geometry">
            <mxPoint x="280" y="293.5" as="targetPoint" />
            <Array as="points">
              <mxPoint x="280" y="254" />
            </Array>
          </mxGeometry>
        </mxCell>
        <mxCell id="cjYl7e59V2CTC6rH1wNU-5" value="" style="outlineConnect=0;dashed=0;verticalLabelPosition=bottom;verticalAlign=top;align=center;html=1;shape=mxgraph.aws3.classic_load_balancer;fillColor=#F58534;gradientColor=none;strokeColor=#FF66B3;" vertex="1" parent="YKPgOPrzMkJwlognBXx7-1">
          <mxGeometry x="257" y="373.5" width="46" height="49" as="geometry" />
        </mxCell>
        <mxCell id="cjYl7e59V2CTC6rH1wNU-13" value="Public subnet" style="points=[[0,0],[0.25,0],[0.5,0],[0.75,0],[1,0],[1,0.25],[1,0.5],[1,0.75],[1,1],[0.75,1],[0.5,1],[0.25,1],[0,1],[0,0.75],[0,0.5],[0,0.25]];outlineConnect=0;gradientColor=none;html=1;whiteSpace=wrap;fontSize=12;fontStyle=0;shape=mxgraph.aws4.group;grIcon=mxgraph.aws4.group_security_group;grStroke=0;strokeColor=#248814;fillColor=#E9F3E6;verticalAlign=top;align=left;spacingLeft=30;fontColor=#248814;dashed=0;" vertex="1" parent="YKPgOPrzMkJwlognBXx7-1">
          <mxGeometry x="347" y="459" width="188" height="171" as="geometry" />
        </mxCell>
        <mxCell id="cjYl7e59V2CTC6rH1wNU-4" value="" style="outlineConnect=0;dashed=0;verticalLabelPosition=bottom;verticalAlign=top;align=center;html=1;shape=mxgraph.aws3.vpc_nat_gateway;fillColor=#F58534;gradientColor=none;strokeColor=#FF66B3;" vertex="1" parent="YKPgOPrzMkJwlognBXx7-1">
          <mxGeometry x="561" y="377.5" width="62" height="57.5" as="geometry" />
        </mxCell>
        <mxCell id="cjYl7e59V2CTC6rH1wNU-14" value="" style="group" vertex="1" connectable="0" parent="YKPgOPrzMkJwlognBXx7-1">
          <mxGeometry x="948" y="359.25" width="78" height="78" as="geometry" />
        </mxCell>
        <mxCell id="YKPgOPrzMkJwlognBXx7-10" value="" style="sketch=0;outlineConnect=0;fontColor=#232F3E;gradientColor=none;fillColor=#527FFF;strokeColor=none;dashed=0;verticalLabelPosition=bottom;verticalAlign=top;align=center;html=1;fontSize=12;fontStyle=0;aspect=fixed;pointerEvents=1;shape=mxgraph.aws4.rds_instance;" parent="cjYl7e59V2CTC6rH1wNU-14" vertex="1">
          <mxGeometry width="78" height="78" as="geometry" />
        </mxCell>
        <mxCell id="YKPgOPrzMkJwlognBXx7-27" value="" style="outlineConnect=0;dashed=0;verticalLabelPosition=bottom;verticalAlign=top;align=center;html=1;shape=mxgraph.aws3.kms;fillColor=#759C3E;gradientColor=none;strokeColor=#FF66B3;" parent="cjYl7e59V2CTC6rH1wNU-14" vertex="1">
          <mxGeometry x="7" y="48.25" width="26.5" height="23" as="geometry" />
        </mxCell>
        <mxCell id="cjYl7e59V2CTC6rH1wNU-19" value="" style="outlineConnect=0;dashed=0;verticalLabelPosition=bottom;verticalAlign=top;align=center;html=1;shape=mxgraph.aws3.ec2;fillColor=#F58534;gradientColor=none;strokeColor=#FF66B3;" vertex="1" parent="YKPgOPrzMkJwlognBXx7-1">
          <mxGeometry x="412" y="220" width="65" height="68" as="geometry" />
        </mxCell>
        <mxCell id="159kFaiQRVPu56qupL2q-7" value="" style="edgeStyle=orthogonalEdgeStyle;rounded=0;orthogonalLoop=1;jettySize=auto;html=1;startArrow=blockThin;startFill=1;endArrow=blockThin;endFill=1;strokeWidth=2;entryX=1;entryY=0.5;entryDx=0;entryDy=0;entryPerimeter=0;" edge="1" parent="YKPgOPrzMkJwlognBXx7-1" source="cjYl7e59V2CTC6rH1wNU-22" target="cjYl7e59V2CTC6rH1wNU-19">
          <mxGeometry relative="1" as="geometry">
            <mxPoint x="666" y="376" as="targetPoint" />
            <Array as="points">
              <mxPoint x="637" y="386" />
              <mxPoint x="637" y="254" />
            </Array>
          </mxGeometry>
        </mxCell>
        <mxCell id="159kFaiQRVPu56qupL2q-8" value="" style="edgeStyle=orthogonalEdgeStyle;rounded=0;orthogonalLoop=1;jettySize=auto;html=1;startArrow=blockThin;startFill=1;endArrow=blockThin;endFill=1;strokeWidth=2;entryX=1;entryY=0.5;entryDx=0;entryDy=0;entryPerimeter=0;" edge="1" parent="YKPgOPrzMkJwlognBXx7-1" source="cjYl7e59V2CTC6rH1wNU-22" target="159kFaiQRVPu56qupL2q-3">
          <mxGeometry relative="1" as="geometry">
            <mxPoint x="664" y="378.25" as="targetPoint" />
            <Array as="points">
              <mxPoint x="637" y="405" />
              <mxPoint x="637" y="559" />
            </Array>
          </mxGeometry>
        </mxCell>
        <mxCell id="cjYl7e59V2CTC6rH1wNU-22" value="" style="outlineConnect=0;dashed=0;verticalLabelPosition=bottom;verticalAlign=top;align=center;html=1;shape=mxgraph.aws3.ec2;fillColor=#F58534;gradientColor=none;strokeColor=#FF66B3;" vertex="1" parent="YKPgOPrzMkJwlognBXx7-1">
          <mxGeometry x="744" y="359.25" width="54" height="74.5" as="geometry" />
        </mxCell>
        <mxCell id="159kFaiQRVPu56qupL2q-3" value="" style="outlineConnect=0;dashed=0;verticalLabelPosition=bottom;verticalAlign=top;align=center;html=1;shape=mxgraph.aws3.ec2;fillColor=#F58534;gradientColor=none;strokeColor=#FF66B3;" vertex="1" parent="YKPgOPrzMkJwlognBXx7-1">
          <mxGeometry x="411" y="525.25" width="65" height="68" as="geometry" />
        </mxCell>
        <mxCell id="159kFaiQRVPu56qupL2q-6" value="" style="edgeStyle=orthogonalEdgeStyle;rounded=0;orthogonalLoop=1;jettySize=auto;html=1;startArrow=blockThin;startFill=1;endArrow=blockThin;endFill=1;strokeWidth=2;entryX=0;entryY=0.5;entryDx=0;entryDy=0;entryPerimeter=0;" edge="1" parent="YKPgOPrzMkJwlognBXx7-1" source="cjYl7e59V2CTC6rH1wNU-5" target="159kFaiQRVPu56qupL2q-3">
          <mxGeometry relative="1" as="geometry">
            <mxPoint x="280" y="502.5" as="targetPoint" />
            <Array as="points">
              <mxPoint x="280" y="559" />
            </Array>
          </mxGeometry>
        </mxCell>
        <mxCell id="159kFaiQRVPu56qupL2q-9" value="" style="rounded=0;whiteSpace=wrap;html=1;strokeColor=#FF8000;fillColor=none;strokeWidth=1;dashed=1;" vertex="1" parent="YKPgOPrzMkJwlognBXx7-1">
          <mxGeometry x="384.5" y="211" width="120" height="397" as="geometry" />
        </mxCell>
      </root>
    </mxGraphModel>
  </diagram>
</mxfile>
